PathFileType	4	(X/Y/Z)	/Users/itak/Documents/Research/Walk-IL/dataset/trc/00059_00006.trc
DataRate	CameraRate	NumFrames	NumMarkers	Units	OrigDataRate	OrigDataStartFrame	OrigNumFrames
100.000000	100.000000	4	53	mm	100.000000	0	750
Frame#	Time	RPSI			LPSI			L3			STRN			T10			C7			CLAV			RBAK			LBAK			LSHO			LUPA			LAEL			LAOL			LWTS			LWPS			LFRA			LIFD			LHPS			LHTS			RSHO			RUPA			RAEL			RAOL			RWTS			RWPS			RFRA			RIFD			RHTS			RHPS			RBHD			LFHD			RFHD			LBHD			LHIP			RHIP			RASI			LASI			LKNE			LTHI			LANK			LTIP			LTOE			LMT1			LMT5			LHEE			RKNE			RTHI			RANK			RTIP			RTOE			RMT1			RMT5			RHEE			
		X1	Y1	Z1	X2	Y2	Z2	X3	Y3	Z3	X4	Y4	Z4	X5	Y5	Z5	X6	Y6	Z6	X7	Y7	Z7	X8	Y8	Z8	X9	Y9	Z9	X10	Y10	Z10	X11	Y11	Z11	X12	Y12	Z12	X13	Y13	Z13	X14	Y14	Z14	X15	Y15	Z15	X16	Y16	Z16	X17	Y17	Z17	X18	Y18	Z18	X19	Y19	Z19	X20	Y20	Z20	X21	Y21	Z21	X22	Y22	Z22	X23	Y23	Z23	X24	Y24	Z24	X25	Y25	Z25	X26	Y26	Z26	X27	Y27	Z27	X28	Y28	Z28	X29	Y29	Z29	X30	Y30	Z30	X31	Y31	Z31	X32	Y32	Z32	X33	Y33	Z33	X34	Y34	Z34	X35	Y35	Z35	X36	Y36	Z36	X37	Y37	Z37	X38	Y38	Z38	X39	Y39	Z39	X40	Y40	Z40	X41	Y41	Z41	X42	Y42	Z42	X43	Y43	Z43	X44	Y44	Z44	X45	Y45	Z45	X46	Y46	Z46	X47	Y47	Z47	X48	Y48	Z48	X49	Y49	Z49	X50	Y50	Z50	X51	Y51	Z51	X52	Y52	Z52	X53	Y53	Z53	

1	0	-84.38833618164062	1039.151733398438	1272.601196289062	-96.72335052490234	1035.885498046875	1096.9677734375	-86.09233093261719	1083.620849609375	1176.82421875	153.2745971679688	1289.902221679688	1180.021484375	-110.7470855712891	1215.785522460938	1169.32666015625	-64.20607757568359	1485.362915039062	1164.213745117188	-123.0367126464844	1345.127807617188	1239.224487304688	118.566650390625	1403.047485351562	1175.673461914062	-79.76863098144531	1445.844482421875	1062.164306640625	28.00428771972656	1452.353271484375	994.892822265625	23.49369812011719	1323.253295898438	918.676025390625	61.03620910644531	1109.079467773438	907.9749755859375	-9.206597328186035	1091.822143554688	986.7944946289062	156.6049194335938	872.9005737304688	984.2788696289062	106.3254928588867	861.9210815429688	917.5333251953125	88.56430053710938	1001.323852539062	904.4490356445312	157.4996795654297	682.4458618164062	1002.625427246094	131.5175476074219	779.7178955078125	926.800048828125	172.2615051269531	785.2718505859375	985.0184936523438	-5.284034729003906	1453.045654296875	1343.795043945312	-16.19369316101074	1383.465576171875	1407.7734375	-31.53001403808594	1115.455688476562	1432.479248046875	-12.69729518890381	1097.081176757812	1337.76708984375	119.0721664428711	868.0904541015625	1398.049560546875	46.92494201660156	852.0526123046875	1445.935791015625	-14.73354339599609	1037.02685546875	1438.722900390625	128.9181823730469	678.7156982421875	1383.993408203125	143.2380981445312	765.1680908203125	1398.546142578125	85.19425201416016	763.3707885742188	1449.546630859375	-30.37948226928711	1665.798828125	1102.775756835938	133.4616851806641	1704.667236328125	1237.39599609375	143.0060272216797	1707.097412109375	1111.630493164062	-31.30245208740234	1656.03369140625	1240.086791992188	1.476609945297241	965.5446166992188	1006.977172851562	-19.8720817565918	967.29345703125	1348.635009765625	105.997673034668	979.3660888671875	1326.4677734375	117.8841018676758	972.707763671875	1058.030151367188	27.21329879760742	498.6142578125	1055.089599609375	10.6861400604248	641.6939697265625	1017.927490234375	-70.20380401611328	51.92974853515625	1040.8818359375	-32.39665985107422	268.0720520019531	1032.728637695312	135.0136108398438	44.24760437011719	1041.990478515625	87.25111389160156	42.52320098876953	1097.048950195312	31.27506065368652	42.95032501220703	1000.190368652344	-122.7244262695312	48.29148864746094	1116.365600585938	27.69557952880859	518.2367553710938	1331.375854492188	54.02953720092773	789.6404418945312	1358.332763671875	-62.93133544921875	45.66728210449219	1328.661987304688	-0.09603527188301086	401.3594360351562	1338.420043945312	155.3246765136719	40.25846099853516	1307.663818359375	98.66999816894531	48.6552848815918	1262.575317382812	60.07249450683594	47.66080474853516	1353.033447265625	-105.1275329589844	46.90542984008789	1269.338623046875	
2	0.01	-84.37469482421875	1039.141845703125	1272.659423828125	-96.77532958984375	1035.8779296875	1097.06884765625	-86.13799285888672	1083.644897460938	1176.862182617188	153.2737121582031	1289.897094726562	1180.0791015625	-110.765495300293	1215.833251953125	1169.308959960938	-64.14604187011719	1485.4111328125	1164.198974609375	-123.0650253295898	1345.186279296875	1239.19287109375	118.5731201171875	1403.062744140625	1175.73974609375	-79.65984344482422	1445.907958984375	1062.164794921875	28.15474700927734	1452.3974609375	994.9197387695312	23.5874137878418	1323.323974609375	918.6744995117188	60.89093399047852	1109.150634765625	907.8193969726562	-9.30378532409668	1091.897705078125	986.7022094726562	156.1377258300781	872.7755126953125	983.6598510742188	105.7744979858398	861.8275756835938	916.952880859375	88.29671478271484	1001.363098144531	904.1382446289062	157.8756103515625	682.525146484375	1001.81396484375	131.4951477050781	779.6912231445312	926.0505981445312	172.2828063964844	785.4425048828125	984.2052612304688	-5.337334632873535	1453.086669921875	1343.810302734375	-16.28618049621582	1383.50048828125	1407.77880859375	-31.6690616607666	1115.513427734375	1432.505126953125	-12.70746326446533	1097.105590820312	1337.80615234375	118.9909973144531	868.1886596679688	1398.212524414062	46.86263656616211	852.0867919921875	1446.035400390625	-14.8848934173584	1037.094848632812	1438.755737304688	128.9257354736328	678.7809448242188	1384.1708984375	143.2800750732422	765.2109985351562	1398.776977539062	85.14443969726562	763.4363403320312	1449.696533203125	-30.19850921630859	1665.816772460938	1102.753540039062	133.6618041992188	1704.595703125	1237.4638671875	143.1822662353516	1707.031860351562	1111.7265625	-31.21385955810547	1656.126708984375	1240.098266601562	1.417866110801697	965.5473022460938	1007.046081542969	-19.88374137878418	967.2987670898438	1348.692504882812	106.0059280395508	979.3916015625	1326.49951171875	117.8488540649414	972.717529296875	1058.0380859375	27.24372673034668	498.6265869140625	1055.119995117188	10.69572639465332	641.7060546875	1017.976928710938	-70.20738983154297	51.94022750854492	1040.891723632812	-32.38357162475586	268.07470703125	1032.754760742188	135.0159606933594	44.24819183349609	1041.98876953125	87.25642395019531	42.52667999267578	1097.037963867188	31.27515411376953	42.95267868041992	1000.193237304688	-122.7214584350586	48.29838562011719	1116.368774414062	27.78310585021973	518.2568969726562	1331.408935546875	54.13962554931641	789.599365234375	1358.355712890625	-62.92417526245117	45.66687393188477	1328.660034179688	0.05347428098320961	401.3115844726562	1338.421630859375	155.3296508789062	40.26543426513672	1307.66943359375	98.68658447265625	48.64131546020508	1262.56103515625	60.08868408203125	47.65694046020508	1353.021728515625	-105.1249542236328	46.9105110168457	1269.342895507812	
3	0.02	-84.34888458251953	1039.130249023438	1272.7373046875	-96.84004211425781	1035.865844726562	1097.197631835938	-86.19146728515625	1083.669921875	1176.91796875	153.2727355957031	1289.888671875	1180.148681640625	-110.7861862182617	1215.887084960938	1169.2900390625	-64.07672119140625	1485.467163085938	1164.1748046875	-123.0967254638672	1345.25	1239.15234375	118.5816421508789	1403.078002929688	1175.814453125	-79.52793884277344	1445.97900390625	1062.1650390625	28.33227157592773	1452.443359375	994.952392578125	23.69647026062012	1323.406005859375	918.6683349609375	60.70637130737305	1109.231811523438	907.6207275390625	-9.441399574279785	1091.982788085938	986.5765380859375	155.5667572021484	872.6314697265625	982.8943481445312	105.0991592407227	861.7135620117188	916.2431640625	87.94248962402344	1001.409851074219	903.7455444335938	158.3573608398438	682.6318359375	1000.815063476562	131.4691009521484	779.6653442382812	925.1365966796875	172.3152008056641	785.6618041992188	983.1968994140625	-5.400650501251221	1453.133666992188	1343.827270507812	-16.40668869018555	1383.546875	1407.78955078125	-31.85425186157227	1115.576416015625	1432.5458984375	-12.73825931549072	1097.135131835938	1337.8623046875	118.8797225952148	868.3123779296875	1398.417724609375	46.79306411743164	852.119384765625	1446.150024414062	-15.09949970245361	1037.176025390625	1438.807983398438	128.9747772216797	678.8958740234375	1384.365844726562	143.3456573486328	765.286376953125	1399.07666015625	85.10392761230469	763.5269165039062	1449.889526367188	-29.95554733276367	1665.850341796875	1102.72509765625	133.9091033935547	1704.493041992188	1237.562377929688	143.4254302978516	1706.941528320312	1111.848754882812	-31.0947151184082	1656.2451171875	1240.113891601562	1.340471148490906	965.550048828125	1007.134094238281	-19.88259315490723	967.3065185546875	1348.767578125	106.0288009643555	979.4188232421875	1326.536010742188	117.8055267333984	972.7296142578125	1058.044799804688	27.28081321716309	498.6402893066406	1055.153198242188	10.70242595672607	641.7177124023438	1018.030029296875	-70.21306610107422	51.95470809936523	1040.898071289062	-32.36492538452148	268.0786743164062	1032.787475585938	135.0186614990234	44.24713134765625	1041.986938476562	87.25988006591797	42.52986907958984	1097.025756835938	31.27624893188477	42.95439910888672	1000.196472167969	-122.7167358398438	48.3063850402832	1116.374145507812	27.88247871398926	518.2794799804688	1331.449462890625	54.26624298095703	789.55029296875	1358.390258789062	-62.91884994506836	45.66563034057617	1328.659057617188	0.2250709682703018	401.2547302246094	1338.427001953125	155.3357238769531	40.27508163452148	1307.67529296875	98.70332336425781	48.62662124633789	1262.546264648438	60.10377502441406	47.65411758422852	1353.008056640625	-105.1206665039062	46.91619110107422	1269.349975585938	
4	0.03	-84.30844116210938	1039.117797851562	1272.833740234375	-96.91442108154297	1035.848876953125	1097.347534179688	-86.24809265136719	1083.6923828125	1176.992309570312	153.2713470458984	1289.875366210938	1180.225952148438	-110.8074340820312	1215.941650390625	1169.272338867188	-64.00529479980469	1485.526245117188	1164.138916015625	-123.1291046142578	1345.312133789062	1239.104125976562	118.5922698974609	1403.090454101562	1175.890747070312	-79.38168334960938	1446.050170898438	1062.164794921875	28.5229320526123	1452.484252929688	994.9886474609375	23.8105640411377	1323.491821289062	918.6559448242188	60.48899459838867	1109.315551757812	907.3859252929688	-9.620808601379395	1092.068603515625	986.41796875	154.9234161376953	872.4784545898438	982.0213623046875	104.3356552124023	861.5852661132812	915.4434204101562	87.50895690917969	1001.459228515625	903.2872314453125	158.9268493652344	682.7647705078125	999.6807250976562	131.4344787597656	779.6419677734375	924.1068115234375	172.3580322265625	785.9193115234375	982.0443115234375	-5.469891548156738	1453.18212890625	1343.84423828125	-16.55038261413574	1383.6025390625	1407.806396484375	-32.08162689208984	1115.638549804688	1432.602905273438	-12.79583644866943	1097.16650390625	1337.93701171875	118.7386169433594	868.4559326171875	1398.656372070312	46.72123718261719	852.14453125	1446.2705078125	-15.37690544128418	1037.2646484375	1438.882934570312	129.0767211914062	679.067626953125	1384.557739257812	143.4377136230469	765.4035034179688	1399.435546875	85.08587646484375	763.6439819335938	1450.117553710938	-29.65222549438477	1665.90478515625	1102.69189453125	134.1905517578125	1704.358154296875	1237.692626953125	143.7352905273438	1706.826049804688	1111.993774414062	-30.94626426696777	1656.384033203125	1240.132690429688	1.247222542762756	965.5521850585938	1007.2373046875	-19.86076736450195	967.3164672851562	1348.860229492188	106.0702438354492	979.4437255859375	1326.574951171875	117.7566452026367	972.7437133789062	1058.049926757812	27.32285118103027	498.6538696289062	1055.18603515625	10.70294761657715	641.7274169921875	1018.080505371094	-70.21892547607422	51.97145462036133	1040.903076171875	-32.34065246582031	268.0839233398438	1032.824340820312	135.0220489501953	44.2442626953125	1041.985717773438	87.26052856445312	42.53117370605469	1097.013671875	31.27824211120605	42.95528793334961	1000.199768066406	-122.7102127075195	48.31457901000977	1116.382202148438	27.98515892028809	518.3016357421875	1331.494262695312	54.3948974609375	789.5010375976562	1358.436157226562	-62.91638565063477	45.6637077331543	1328.660278320312	0.4034016132354736	401.1921081542969	1338.43701171875	155.3421783447266	40.28611373901367	1307.681030273438	98.71830749511719	48.61251068115234	1262.531860351562	60.11574935913086	47.65290069580078	1352.99365234375	-105.1149215698242	46.92318344116211	1269.360595703125	
